<svg xmlns="http://www.w3.org/2000/svg" xmlns:xlink="http://www.w3.org/1999/xlink" width="400" zoomAndPan="magnify" viewBox="0 0 300 225" height="300" preserveAspectRatio="xMidYMid meet" version="1.0"><defs><g/></defs><path stroke-linecap="butt" transform="matrix(0.694601, 0, 0, 0.694601, -37.291229, -6.450822)" fill="none" stroke-linejoin="miter" d="M 130.974139 232.132962 C 133.066166 231.908013 134.877007 231.002592 136.069237 229.360464 C 137.649505 226.812915 138.161264 223.815467 138.841735 221.042969 C 139.291634 218.49542 139.747156 215.722921 140.197054 212.950423 C 140.708813 210.346637 141.158712 207.574138 141.839183 205.026589 L 146.703708 183.240264 C 150.212915 166.773986 153.890834 151.044416 158.760983 135.028037 C 161.533481 125.068413 163.625508 115.10879 165.267637 104.924217 C 165.492586 102.83219 166.622956 101.639959 168.714983 101.190061 C 170.357112 100.965112 172.22419 100.50959 173.810081 100.059691 C 175.45221 99.604169 177.094339 99.098034 178.674606 98.642512 L 202.783532 92.417044 C 207.423108 90.774915 212.062684 90.549966 216.92721 90.325017 C 217.894491 90.325017 218.569338 90.325017 219.024861 90.549966 C 219.705332 90.774915 219.986518 91.230437 219.986518 91.680335 L 219.24981 94.227885 C 219.24981 94.458457 219.24981 94.739644 219.24981 94.964593 C 219.024861 95.189542 219.024861 95.645064 219.24981 95.870013 C 219.986518 97.512142 221.341837 98.417562 223.439488 98.417562 C 224.344908 98.417562 225.075993 98.192613 225.756464 97.512142 C 225.981413 97.05662 226.436935 96.550484 226.886833 95.870013 C 227.117406 95.420115 227.623542 94.964593 227.848491 94.227885 C 228.984484 92.417044 228.528962 90.549966 226.886833 88.907837 C 224.114335 86.365912 221.116888 85.004969 217.663918 84.498834 C 216.477311 84.268261 215.346942 84.268261 214.154711 84.268261 C 213.024342 84.268261 211.837735 84.268261 210.707366 84.268261 C 204.875559 84.268261 199.555511 85.68544 194.010515 87.271332 C 191.918488 88.002417 189.595888 88.457939 187.503861 89.13841 C 185.186884 89.869495 182.864284 90.549966 180.541684 91.230437 L 168.945556 94.458457 C 168.714983 94.458457 168.490034 94.458457 168.490034 94.458457 C 168.265084 94.739644 168.040135 94.739644 167.815186 94.739644 C 166.909766 94.739644 166.173057 94.458457 165.492586 93.777986 L 164.075406 92.647617 C 163.169986 92.192095 162.264566 91.910908 161.533481 91.910908 C 160.397488 91.910908 159.210881 92.872566 158.53041 94.739644 C 158.305461 94.739644 158.305461 94.964593 158.305461 95.189542 C 157.855562 96.550484 156.663332 97.512142 154.852491 98.192613 L 141.614234 101.639959 C 137.199607 102.601617 132.56003 103.282088 128.882112 103.282088 L 124.242535 103.282088 C 123.050305 103.282088 122.144885 103.057139 121.014515 102.83219 C 117.05541 102.376668 115.188332 100.059691 115.188332 96.094962 C 115.188332 94.458457 115.413281 93.322464 115.63823 91.680335 C 115.86318 90.100068 116.093752 89.13841 116.093752 87.552518 C 116.093752 86.81581 115.86318 86.135339 115.188332 85.68544 L 113.546203 85.004969 C 113.321254 84.723783 112.865732 84.723783 112.185261 84.723783 C 108.681678 84.723783 107.545685 90.325017 106.870837 92.872566 C 106.134129 96.325535 107.095786 99.322983 109.643335 101.639959 C 113.82739 106.285159 125.372905 109.113895 131.199088 109.113895 C 137.424556 109.113895 143.706261 107.921664 149.476207 106.285159 C 150.212915 106.054586 150.668437 105.829637 151.343284 105.829637 C 152.023756 105.829637 152.535515 105.829637 153.210362 105.604688 C 153.890834 105.604688 154.346356 106.054586 154.346356 106.791295 C 154.115783 107.016244 154.115783 107.471766 154.115783 107.696715 C 154.115783 108.152237 154.115783 108.602135 153.890834 108.827084 C 152.248705 116.01421 150.668437 122.751437 148.801359 129.48304 C 145.34839 140.629271 142.289081 151.949837 139.747156 163.096067 L 132.784979 193.424837 C 130.74919 202.47904 129.33201 211.083345 127.689881 220.081311 C 127.464932 221.717816 127.239983 223.584894 127.239983 225.227023 C 127.239983 226.812915 127.689881 228.679992 128.42659 230.322121 C 129.107061 231.452491 129.787532 232.132962 130.974139 232.132962 Z M 130.974139 232.132962 " stroke="#2b0080" stroke-width="13.038075" stroke-opacity="1" stroke-miterlimit="4"/><path stroke-linecap="butt" transform="matrix(0.694601, 0, 0, 0.694601, -37.291229, -6.450822)" fill="none" stroke-linejoin="miter" d="M 176.138305 202.029142 C 177.780434 202.029142 179.422562 201.123721 180.777881 199.256643 C 181.739539 198.064413 182.42001 196.709094 183.100481 195.522488 C 183.837189 193.936596 184.74261 192.069518 185.417457 190.427389 C 186.097928 188.841498 186.834637 187.199369 187.515108 185.562864 C 188.701715 183.015315 189.832084 180.692715 191.018691 178.145166 C 191.924111 175.828189 193.060105 173.505589 194.246711 171.188613 C 197.01921 165.643616 203.750813 153.136444 209.751332 152.399735 C 209.976281 152.399735 210.712989 151.494315 210.712989 151.269366 C 210.48804 151.044416 210.206854 150.588894 209.976281 150.363945 L 207.203783 149.627237 C 206.978833 149.627237 206.753884 149.627237 206.523311 149.402288 C 206.298362 149.402288 206.073413 149.402288 205.848464 149.402288 C 201.433837 149.402288 197.92463 154.041864 195.88884 157.551071 C 190.287606 164.963145 186.379115 173.736162 182.644959 182.334844 L 180.777881 185.787813 C 180.552932 186.012762 180.327983 186.237711 180.09741 186.524521 C 179.872461 186.749471 179.647512 186.749471 179.647512 186.524521 C 179.422562 185.787813 179.191989 185.562864 179.191989 185.332291 L 182.644959 161.678888 C 182.869908 159.361911 183.32543 157.039311 183.837189 154.491762 C 184.062139 152.174786 184.287088 149.402288 184.287088 146.40484 L 184.287088 143.401769 C 184.062139 141.309742 181.514589 140.859844 179.872461 140.859844 C 179.422562 141.309742 179.191989 141.534691 179.191989 141.534691 C 175.688406 146.174267 169.462939 183.695786 168.951179 192.069518 C 168.951179 192.974938 168.951179 193.936596 169.176128 194.842016 C 169.176128 195.747437 169.176128 196.709094 169.176128 197.614515 C 169.462939 199.026071 170.137786 200.162064 171.779915 200.893149 C 172.235437 201.123721 172.915908 201.57362 173.821328 201.798569 C 174.552413 202.029142 175.232884 202.029142 176.138305 202.029142 Z M 176.138305 202.029142 " stroke="#2b0080" stroke-width="13.038075" stroke-opacity="1" stroke-miterlimit="4"/><path stroke-linecap="butt" transform="matrix(0.694601, 0, 0, 0.694601, -37.291229, -6.450822)" fill="none" stroke-linejoin="miter" d="M 215.3132 204.80164 C 218.366884 204.80164 221.139383 202.703989 223.23141 200.893149 C 227.646037 196.253572 231.548905 191.389047 235.058111 186.012762 C 237.155762 182.559793 239.191552 179.050586 241.283579 175.60324 C 243.375606 172.37522 245.473257 169.096586 247.565284 165.643616 L 249.432362 162.13441 C 250.112833 161.228989 248.920603 159.868047 247.790233 159.586861 C 247.565284 159.361911 247.109762 159.361911 246.378677 159.361911 C 245.473257 159.361911 244.567837 159.868047 243.606179 161.00404 C 242.925708 161.909461 242.470186 162.871118 242.020288 163.545966 C 241.508528 164.451386 241.05863 165.413044 240.378159 166.093515 L 231.779477 180.692715 L 226.45943 188.335362 C 224.592352 190.877288 222.269752 192.974938 219.722203 195.522488 C 219.497254 195.747437 219.272305 195.747437 219.047355 196.028623 C 218.816783 196.253572 218.591833 196.253572 218.366884 196.484145 C 218.141935 196.709094 217.911362 196.709094 217.405227 196.709094 C 216.724755 196.484145 216.499806 196.253572 216.499806 195.522488 C 216.724755 193.424837 216.949705 191.613996 217.180277 189.746918 C 217.405227 187.87984 217.630176 186.012762 217.911362 184.201921 C 219.047355 177.920216 220.458911 172.37522 222.044803 166.093515 L 223.461983 160.323569 C 223.686932 158.906389 223.461983 158.000969 222.269752 157.551071 C 221.139383 156.814362 220.458911 156.589413 220.458911 156.589413 L 219.722203 156.589413 C 217.911362 156.589413 216.949705 158.000969 216.274857 159.586861 C 210.44305 170.733091 207.670552 182.334844 207.670552 194.161545 C 207.670552 195.066965 207.670552 196.028623 207.670552 196.934043 C 207.670552 197.839464 207.895501 198.801121 208.182311 199.481593 C 208.857159 202.934562 211.86023 204.80164 215.3132 204.80164 Z M 225.778959 144.08224 C 226.45943 144.08224 227.139901 144.08224 227.36485 144.08224 C 227.646037 144.08224 228.101559 143.857291 228.776406 143.632342 C 230.418535 142.440111 231.099006 139.442664 229.968637 137.800535 C 229.231928 137.120064 228.551457 136.214644 227.870986 135.028037 C 226.909328 133.897667 225.778959 133.442145 224.592352 133.442145 C 223.461983 133.442145 222.494701 133.897667 222.044803 134.803088 C 221.364332 136.214644 221.139383 137.800535 221.139383 139.667613 C 221.139383 141.309742 221.819854 142.665061 223.461983 143.401769 C 223.911881 143.632342 224.367403 143.857291 224.817301 143.857291 C 225.098488 143.857291 225.55401 143.857291 225.778959 144.08224 Z M 225.778959 144.08224 " stroke="#2b0080" stroke-width="13.038075" stroke-opacity="1" stroke-miterlimit="4"/><path stroke-linecap="butt" transform="matrix(0.694601, 0, 0, 0.694601, -37.291229, -6.450822)" fill="none" stroke-linejoin="miter" d="M 234.102077 238.864565 C 238.516705 238.639616 239.478362 237.509247 240.158833 234.00004 C 240.383782 233.544518 240.383782 232.86967 240.383782 231.67744 C 240.608732 230.097172 241.064254 228.679992 241.289203 227.037864 C 241.514152 225.451972 242.025911 223.815467 242.25086 222.173338 C 245.023359 208.024037 248.701277 193.711647 255.207932 180.692715 C 255.432881 180.017867 255.663454 179.787294 255.663454 179.787294 C 255.888403 179.050586 256.113352 178.825637 256.625111 178.825637 C 257.299959 178.825637 257.530532 179.050586 257.755481 179.787294 C 258.942087 181.884945 261.034115 183.015315 264.037186 183.240264 C 269.357233 183.240264 271.899159 181.373186 274.671657 177.014796 C 278.636386 172.150271 281.183935 166.549037 282.539254 160.323569 C 283.275962 157.551071 283.72586 154.722335 283.051013 151.719264 C 282.089355 147.310261 278.180864 144.762711 273.766237 144.762711 C 267.940054 144.762711 263.300477 150.813844 260.752928 155.228471 C 259.167037 158.231542 257.755481 161.453938 256.113352 164.451386 C 255.663454 165.188094 255.432881 166.093515 255.207932 167.055172 C 254.982982 167.960593 254.302511 168.641064 253.340854 169.096586 C 252.660382 169.321535 252.890955 167.510694 253.852613 163.545966 C 253.852613 163.321016 253.852613 163.096067 254.077562 162.871118 C 254.077562 162.871118 254.077562 162.640545 254.077562 162.415596 C 257.755481 148.271918 260.752928 134.122617 263.812237 119.523417 C 264.487084 117.43139 264.717657 115.564312 264.487084 113.466661 C 264.487084 111.886393 262.395057 110.924735 261.264687 110.924735 C 260.072457 110.924735 258.942087 111.374634 258.205379 112.56124 L 256.85006 115.10879 C 256.394538 116.239159 255.888403 117.656339 255.432881 118.842945 C 254.758033 119.978939 254.302511 121.390495 253.852613 122.751437 L 248.982464 140.348084 C 242.700759 163.776538 236.930813 187.654891 233.421606 211.758193 C 232.291237 218.27047 231.329579 224.490315 230.649108 231.227542 L 230.649108 235.411596 C 230.649108 237.734196 231.779477 238.864565 234.102077 238.864565 Z M 259.167037 174.69782 C 258.942087 174.69782 258.717138 174.467247 258.435952 173.961111 L 258.717138 173.055691 C 260.752928 168.191166 263.075528 163.096067 266.129213 158.000969 C 267.259582 155.459044 268.901711 153.136444 270.993738 151.494315 L 273.035152 149.852186 C 273.316338 149.852186 273.316338 149.852186 273.316338 149.627237 C 273.316338 149.627237 273.316338 149.627237 273.541287 149.627237 C 274.671657 149.627237 275.127179 150.082759 275.127179 151.044416 C 275.352128 151.494315 275.352128 152.174786 275.352128 153.136444 L 274.221759 158.456491 C 273.541287 161.678888 268.676762 174.18606 264.942606 174.18606 L 264.487084 174.18606 C 264.262135 173.961111 263.812237 173.961111 263.300477 173.961111 L 262.620006 173.961111 C 261.939535 173.961111 261.489637 173.961111 261.034115 174.18606 C 260.30303 174.467247 259.847508 174.467247 259.167037 174.69782 Z M 259.167037 174.69782 " stroke="#2b0080" stroke-width="13.038075" stroke-opacity="1" stroke-miterlimit="4"/><path stroke-linecap="butt" transform="matrix(0.694601, 0, 0, 0.694601, -37.291229, -6.450822)" fill="none" stroke-linejoin="miter" d="M 293.201843 204.80164 C 296.255528 204.80164 299.028026 202.703989 301.125677 200.893149 C 305.534681 196.253572 309.443172 191.389047 312.952379 186.012762 C 315.044406 182.559793 317.080196 179.050586 319.172223 175.60324 C 321.269874 172.37522 323.361901 169.096586 325.453928 165.643616 L 327.321006 162.13441 C 328.001477 161.228989 326.81487 159.868047 325.684501 159.586861 C 325.453928 159.361911 325.00403 159.361911 324.267321 159.361911 C 323.361901 159.361911 322.45648 159.868047 321.494823 161.00404 C 320.814352 161.909461 320.364453 162.871118 319.908931 163.545966 C 319.402796 164.451386 318.947274 165.413044 318.266803 166.093515 L 309.668121 180.692715 L 304.348074 188.335362 C 302.480996 190.877288 300.16402 192.974938 297.61647 195.522488 C 297.391521 195.747437 297.160948 195.747437 296.935999 196.028623 C 296.71105 196.253572 296.486101 196.253572 296.255528 196.484145 C 296.030579 196.709094 295.80563 196.709094 295.29387 196.709094 C 294.613399 196.484145 294.38845 196.253572 294.38845 195.522488 C 294.613399 193.424837 294.843972 191.613996 295.068921 189.746918 C 295.29387 187.87984 295.51882 186.012762 295.80563 184.201921 C 296.935999 177.920216 298.353179 172.37522 299.933447 166.093515 L 301.350626 160.323569 C 301.575575 158.906389 301.350626 158.000969 300.16402 157.551071 C 299.028026 156.814362 298.353179 156.589413 298.353179 156.589413 L 297.61647 156.589413 C 295.80563 156.589413 294.843972 158.000969 294.163501 159.586861 C 288.337318 170.733091 285.56482 182.334844 285.56482 194.161545 C 285.56482 195.066965 285.56482 196.028623 285.56482 196.934043 C 285.56482 197.839464 285.789769 198.801121 286.070955 199.481593 C 286.751426 202.934562 289.748874 204.80164 293.201843 204.80164 Z M 303.667603 144.08224 C 304.348074 144.08224 305.028545 144.08224 305.253494 144.08224 C 305.534681 144.08224 305.990203 143.857291 306.670674 143.632342 C 308.312803 142.440111 308.98765 139.442664 307.857281 137.800535 C 307.120572 137.120064 306.440101 136.214644 305.765253 135.028037 C 304.803596 133.897667 303.667603 133.442145 302.480996 133.442145 C 301.350626 133.442145 300.388969 133.897667 299.933447 134.803088 C 299.258599 136.214644 299.028026 137.800535 299.028026 139.667613 C 299.028026 141.309742 299.708498 142.665061 301.350626 143.401769 C 301.800525 143.632342 302.256047 143.857291 302.705945 143.857291 C 302.992755 143.857291 303.442653 143.857291 303.667603 144.08224 Z M 303.667603 144.08224 " stroke="#2b0080" stroke-width="13.038075" stroke-opacity="1" stroke-miterlimit="4"/><path stroke-linecap="butt" transform="matrix(0.694601, 0, 0, 0.694601, -37.291229, -6.450822)" fill="none" stroke-linejoin="miter" d="M 321.500447 255.105894 C 329.64923 255.105894 333.327148 247.238298 334.513755 240.506694 C 336.605782 228.679992 336.836355 216.853291 333.096575 205.026589 C 332.421728 203.440698 332.191155 202.254091 331.966206 200.611962 C 330.779599 196.934043 329.418657 193.199888 327.551579 189.521969 C 327.32663 188.841498 327.10168 188.335362 326.876731 187.654891 C 326.589921 187.199369 326.140023 186.749471 325.915074 186.012762 C 325.234603 184.882393 325.684501 183.976972 327.10168 183.465213 L 341.92583 176.50866 C 349.568477 172.600169 364.617575 165.643616 369.257151 161.00404 C 369.937623 160.773467 369.712674 159.868047 369.032202 159.136962 C 368.126782 158.456491 367.390074 158.231542 366.709602 158.231542 C 366.259704 158.231542 365.804182 158.456491 365.073097 158.68144 L 361.164606 160.773467 C 353.246396 165.643616 345.15385 170.058244 336.836355 173.961111 C 335.644124 174.69782 334.738704 174.922769 333.096575 175.147718 C 333.096575 175.372667 333.096575 175.372667 333.096575 175.147718 C 332.871626 175.147718 332.871626 175.147718 332.871626 174.922769 C 332.646677 174.922769 332.646677 174.69782 332.646677 174.467247 C 333.552097 172.830742 334.513755 171.638511 335.644124 170.508142 C 343.792908 160.548518 349.793426 149.402288 353.752531 136.670166 C 353.97748 135.989695 353.97748 135.483559 353.97748 134.803088 C 353.97748 134.122617 353.97748 133.672718 354.208053 132.93601 C 354.208053 131.350118 353.752531 129.938562 352.565924 128.802569 C 350.698846 126.710542 348.151297 125.523935 344.923277 125.523935 C 336.099647 125.523935 328.007101 138.312295 323.592474 150.082759 C 318.727948 162.13441 315.274979 175.60324 312.502481 186.237711 C 309.673745 199.481593 308.087853 212.663613 307.632331 226.357392 C 307.632331 231.67744 307.351145 236.547589 308.993274 241.412114 C 310.635403 248.143718 313.407901 255.105894 321.500447 255.105894 Z M 322.462104 249.049138 C 322.231531 249.049138 321.950345 248.824189 321.725396 248.59924 C 321.044925 247.918769 320.595026 247.238298 320.364453 246.27664 C 319.177847 242.829294 318.272426 239.320087 318.272426 235.642169 C 318.047477 234.449938 318.047477 233.319569 318.272426 232.132962 C 318.272426 231.002592 318.272426 229.866599 318.272426 228.679992 C 318.497375 217.814948 319.689606 206.668718 321.725396 195.747437 C 321.725396 195.066965 322.231531 194.386494 322.462104 193.711647 C 323.136952 193.711647 323.367525 193.711647 323.367525 193.711647 C 324.042372 193.936596 324.272945 194.386494 324.272945 194.842016 L 326.140023 200.162064 C 326.364972 201.348671 326.876731 202.254091 327.10168 203.159511 C 327.32663 204.346118 327.551579 205.251538 327.782152 206.443769 C 330.779599 217.303189 330.099128 227.774572 328.007101 238.639616 C 327.551579 241.923874 326.364972 244.696372 324.554131 247.238298 C 324.272945 247.46887 324.272945 247.69382 324.042372 247.918769 C 323.817423 248.143718 323.367525 248.374291 323.136952 248.59924 C 323.136952 248.824189 322.912003 249.049138 322.462104 249.049138 Z M 328.23205 169.602722 C 328.007101 169.602722 328.007101 169.321535 328.007101 169.096586 L 328.007101 168.641064 C 328.007101 167.960593 328.007101 167.285745 328.23205 167.055172 C 330.779599 159.586861 333.096575 152.174786 336.099647 144.987661 C 337.966724 141.084793 340.283701 137.120064 343.286772 133.672718 L 346.05927 131.125169 C 346.340457 130.90022 346.790355 130.90022 347.245877 131.125169 C 347.245877 131.125169 347.470826 131.350118 347.926348 131.80564 L 347.926348 132.93601 C 347.926348 141.990213 335.194226 162.415596 329.13747 169.602722 C 329.13747 169.602722 328.912521 169.602722 328.23205 169.602722 Z M 328.23205 169.602722 " stroke="#2b0080" stroke-width="13.038075" stroke-opacity="1" stroke-miterlimit="4"/><path stroke-linecap="butt" transform="matrix(0.694601, 0, 0, 0.694601, -37.291229, -6.450822)" fill="none" stroke-linejoin="miter" d="M 364.645694 250.241369 C 372.73824 249.335948 377.608389 244.465799 380.605836 237.278674 C 387.11249 223.359945 391.302168 209.441216 393.849718 194.386494 C 394.074667 192.519416 394.755138 191.10786 395.941745 189.971867 C 399.844612 185.562864 403.803717 181.373186 407.768446 177.014796 C 411.671314 172.600169 415.630419 168.416115 419.820097 164.451386 L 421.855887 162.13441 C 422.592595 161.453938 421.855887 160.09862 421.181039 159.868047 C 420.500568 159.361911 419.820097 159.136962 418.63349 159.136962 C 417.503121 159.136962 416.31089 159.586861 415.630419 160.548518 C 410.990843 165.868566 406.351267 170.733091 401.486741 175.60324 C 400.300134 176.789847 399.164141 177.920216 398.033772 178.825637 C 397.752585 179.050586 397.297063 179.050586 396.847165 178.825637 C 396.847165 178.825637 396.847165 178.600688 396.622216 178.375738 L 396.622216 175.828189 C 397.527636 168.191166 398.714243 160.548518 399.844612 153.136444 L 399.844612 149.177339 L 399.164141 147.816396 C 398.258721 146.629789 397.072114 145.949318 395.429985 145.949318 C 394.299616 145.949318 393.394195 146.40484 392.657487 147.310261 L 386.432019 155.683993 C 383.659521 159.586861 380.830785 163.321016 378.058287 166.549037 C 377.377816 167.285745 376.702968 168.191166 375.96626 168.866013 C 375.285789 169.602722 374.380368 170.508142 373.64366 171.188613 C 372.968812 171.413562 372.51329 171.638511 372.063392 171.638511 C 371.832819 171.638511 371.326684 170.508142 371.60787 169.827671 C 371.60787 169.096586 371.832819 168.191166 372.063392 167.055172 L 374.155419 159.868047 C 374.380368 158.906389 374.605318 158.000969 374.83589 157.039311 C 375.06084 156.133891 375.06084 155.228471 375.285789 154.491762 C 375.285789 153.816915 375.06084 153.136444 374.83589 152.399735 C 373.193762 150.813844 372.063392 150.588894 369.965741 150.588894 C 369.290894 150.813844 368.779135 151.269366 368.554185 151.494315 C 366.231585 152.680922 361.592009 168.191166 361.592009 171.188613 C 360.686589 177.014796 363.459087 179.050586 366.968294 180.692715 C 367.648765 180.923288 368.554185 181.373186 369.515843 181.654372 C 370.646213 181.654372 371.60787 181.373186 372.73824 181.148237 C 374.380368 180.467766 375.741311 179.337396 376.702968 178.145166 L 383.378334 170.283193 C 384.115043 169.321535 385.020463 168.416115 385.700934 167.285745 C 386.432019 166.318464 387.11249 165.413044 387.792962 164.226437 C 388.52967 163.545966 388.979568 163.545966 389.204518 163.776538 C 389.43509 164.001488 389.43509 164.001488 389.43509 164.226437 C 389.43509 164.451386 389.43509 164.963145 389.66004 165.188094 C 389.66004 165.413044 389.66004 165.643616 389.43509 165.643616 C 387.792962 174.69782 386.432019 183.465213 384.564941 192.519416 C 384.339992 193.711647 383.890094 194.617067 383.153385 195.291915 C 382.472914 196.484145 381.567494 197.389565 380.605836 198.294986 C 377.608389 201.798569 374.83589 205.026589 371.832819 208.535796 C 368.779135 211.988765 366.006636 215.497972 363.009189 218.945318 C 359.556219 222.679474 355.366541 229.360464 353.724413 234.224989 C 352.594043 238.639616 353.274514 242.148823 355.141592 245.826742 C 357.689141 249.335948 360.236691 250.241369 364.645694 250.241369 Z M 362.553667 246.27664 C 360.686589 245.601792 360.236691 243.504142 359.556219 241.923874 C 359.275033 241.187165 359.275033 240.731643 359.275033 240.281745 C 359.275033 239.826223 359.275033 239.601274 359.275033 239.320087 C 359.275033 231.67744 374.155419 211.308294 380.605836 208.024037 C 381.342545 208.024037 381.342545 208.760745 381.117596 209.891115 C 381.117596 210.121687 381.117596 210.121687 380.830785 210.346637 C 377.833338 220.362498 372.73824 237.959145 366.968294 243.734714 C 365.326165 245.37122 364.645694 246.27664 362.553667 246.27664 Z M 362.553667 246.27664 " stroke="#2b0080" stroke-width="13.038075" stroke-opacity="1" stroke-miterlimit="4"/><g fill="#8c52ff" fill-opacity="1"><g transform="translate(39.180046, 154.002106)"><g><path d="M 14.488281 0.804688 C 15.9375 0.644531 17.226562 0 18.03125 -1.128906 C 19.160156 -2.898438 19.480469 -4.992188 19.964844 -6.921875 C 20.285156 -8.695312 20.605469 -10.625 20.929688 -12.558594 C 21.25 -14.328125 21.574219 -16.261719 22.054688 -18.03125 L 25.4375 -33.164062 C 27.851562 -44.59375 30.429688 -55.542969 33.808594 -66.652344 C 35.742188 -73.574219 37.191406 -80.496094 38.316406 -87.582031 C 38.476562 -89.03125 39.28125 -89.835938 40.730469 -90.15625 C 41.859375 -90.316406 43.148438 -90.640625 44.273438 -90.960938 C 45.402344 -91.285156 46.527344 -91.605469 47.65625 -91.929688 L 64.398438 -96.273438 C 67.617188 -97.402344 70.835938 -97.5625 74.21875 -97.722656 C 74.863281 -97.722656 75.34375 -97.722656 75.667969 -97.5625 C 76.152344 -97.402344 76.3125 -97.078125 76.3125 -96.757812 L 75.828125 -94.988281 C 75.828125 -94.824219 75.828125 -94.664062 75.828125 -94.503906 C 75.667969 -94.34375 75.667969 -94.019531 75.828125 -93.859375 C 76.3125 -92.734375 77.277344 -92.089844 78.726562 -92.089844 C 79.371094 -92.089844 79.851562 -92.25 80.335938 -92.734375 C 80.496094 -93.054688 80.820312 -93.375 81.140625 -93.859375 C 81.300781 -94.183594 81.625 -94.503906 81.785156 -94.988281 C 82.589844 -96.273438 82.269531 -97.5625 81.140625 -98.691406 C 79.210938 -100.460938 77.117188 -101.425781 74.703125 -101.75 C 73.898438 -101.910156 73.089844 -101.910156 72.285156 -101.910156 C 71.480469 -101.910156 70.675781 -101.910156 69.871094 -101.910156 C 65.847656 -101.910156 62.144531 -100.945312 58.28125 -99.816406 C 56.832031 -99.332031 55.222656 -99.011719 53.773438 -98.527344 C 52.164062 -98.046875 50.550781 -97.5625 48.941406 -97.078125 L 40.894531 -94.824219 C 40.730469 -94.824219 40.570312 -94.824219 40.570312 -94.824219 C 40.410156 -94.664062 40.25 -94.664062 40.085938 -94.664062 C 39.445312 -94.664062 38.960938 -94.824219 38.476562 -95.308594 L 37.511719 -96.113281 C 36.867188 -96.4375 36.222656 -96.597656 35.742188 -96.597656 C 34.9375 -96.597656 34.132812 -95.953125 33.648438 -94.664062 C 33.488281 -94.664062 33.488281 -94.503906 33.488281 -94.34375 C 33.164062 -93.375 32.359375 -92.734375 31.070312 -92.25 L 21.894531 -89.835938 C 18.835938 -89.191406 15.617188 -88.707031 13.039062 -88.707031 L 9.820312 -88.707031 C 9.015625 -88.707031 8.371094 -88.867188 7.566406 -89.03125 C 4.828125 -89.351562 3.542969 -90.960938 3.542969 -93.699219 C 3.542969 -94.824219 3.703125 -95.632812 3.863281 -96.757812 C 4.023438 -97.886719 4.1875 -98.527344 4.1875 -99.65625 C 4.1875 -100.140625 4.023438 -100.621094 3.542969 -100.945312 L 2.414062 -101.425781 C 2.253906 -101.585938 1.933594 -101.585938 1.449219 -101.585938 C -0.964844 -101.585938 -1.769531 -97.722656 -2.253906 -95.953125 C -2.738281 -93.539062 -2.09375 -91.445312 -0.320312 -89.835938 C 2.574219 -86.613281 10.625 -84.683594 14.652344 -84.683594 C 18.996094 -84.683594 23.34375 -85.488281 27.367188 -86.613281 C 27.851562 -86.777344 28.175781 -86.9375 28.65625 -86.9375 C 29.140625 -86.9375 29.460938 -86.9375 29.945312 -87.097656 C 30.429688 -87.097656 30.75 -86.777344 30.75 -86.292969 C 30.589844 -86.132812 30.589844 -85.808594 30.589844 -85.648438 C 30.589844 -85.328125 30.589844 -85.003906 30.429688 -84.84375 C 29.300781 -79.851562 28.175781 -75.183594 26.886719 -70.515625 C 24.472656 -62.789062 22.378906 -54.898438 20.605469 -47.171875 L 15.777344 -26.082031 C 14.328125 -19.800781 13.363281 -13.84375 12.234375 -7.566406 C 12.074219 -6.441406 11.914062 -5.152344 11.914062 -4.023438 C 11.914062 -2.898438 12.234375 -1.609375 12.71875 -0.484375 C 13.203125 0.320312 13.683594 0.804688 14.488281 0.804688 Z M 14.488281 0.804688 "/></g></g></g><g fill="#986cbb" fill-opacity="1"><g transform="translate(79.434372, 154.002106)"><g><path d="M 5.636719 -20.125 C 6.761719 -20.125 7.890625 -20.769531 8.855469 -22.054688 C 9.5 -22.859375 9.980469 -23.828125 10.464844 -24.632812 C 10.949219 -25.757812 11.589844 -27.046875 12.074219 -28.175781 C 12.558594 -29.300781 13.039062 -30.429688 13.523438 -31.554688 C 14.328125 -33.324219 15.132812 -34.9375 15.9375 -36.707031 C 16.582031 -38.316406 17.386719 -39.925781 18.191406 -41.535156 C 20.125 -45.402344 24.792969 -54.09375 28.980469 -54.578125 C 29.140625 -54.578125 29.621094 -55.222656 29.621094 -55.382812 C 29.460938 -55.542969 29.300781 -55.863281 29.140625 -56.027344 L 27.207031 -56.507812 C 27.046875 -56.507812 26.886719 -56.507812 26.726562 -56.671875 C 26.5625 -56.671875 26.402344 -56.671875 26.242188 -56.671875 C 23.183594 -56.671875 20.769531 -53.449219 19.320312 -51.035156 C 15.457031 -45.882812 12.71875 -39.765625 10.144531 -33.808594 L 8.855469 -31.394531 C 8.695312 -31.234375 8.53125 -31.070312 8.371094 -30.910156 C 8.210938 -30.75 8.050781 -30.75 8.050781 -30.910156 C 7.890625 -31.394531 7.726562 -31.554688 7.726562 -31.714844 L 10.144531 -48.136719 C 10.304688 -49.746094 10.625 -51.355469 10.949219 -53.128906 C 11.109375 -54.738281 11.269531 -56.671875 11.269531 -58.761719 L 11.269531 -60.855469 C 11.109375 -62.304688 9.335938 -62.625 8.210938 -62.625 C 7.890625 -62.304688 7.726562 -62.144531 7.726562 -62.144531 C 5.3125 -58.925781 0.964844 -32.84375 0.644531 -27.046875 C 0.644531 -26.402344 0.644531 -25.757812 0.804688 -25.113281 C 0.804688 -24.472656 0.804688 -23.828125 0.804688 -23.183594 C 0.964844 -22.21875 1.449219 -21.414062 2.574219 -20.929688 C 2.898438 -20.769531 3.382812 -20.445312 4.023438 -20.285156 C 4.507812 -20.125 4.992188 -20.125 5.636719 -20.125 Z M 5.636719 -20.125 "/></g></g></g><g fill="#cb55ed" fill-opacity="1"><g transform="translate(108.097531, 154.002106)"><g><path d="M 4.1875 -18.191406 C 6.277344 -18.191406 8.210938 -19.640625 9.660156 -20.929688 C 12.71875 -24.148438 15.457031 -27.53125 17.871094 -31.234375 C 19.320312 -33.648438 20.769531 -36.0625 22.21875 -38.476562 C 23.667969 -40.730469 25.113281 -42.984375 26.5625 -45.402344 L 27.851562 -47.816406 C 28.335938 -48.460938 27.53125 -49.425781 26.726562 -49.585938 C 26.5625 -49.746094 26.242188 -49.746094 25.757812 -49.746094 C 25.113281 -49.746094 24.472656 -49.425781 23.828125 -48.621094 C 23.34375 -47.976562 23.023438 -47.332031 22.699219 -46.847656 C 22.378906 -46.207031 22.054688 -45.5625 21.574219 -45.078125 L 15.617188 -34.9375 L 11.914062 -29.621094 C 10.625 -27.851562 9.015625 -26.402344 7.246094 -24.632812 C 7.082031 -24.472656 6.921875 -24.472656 6.761719 -24.308594 C 6.601562 -24.148438 6.441406 -24.148438 6.277344 -23.988281 C 6.117188 -23.828125 5.957031 -23.828125 5.636719 -23.828125 C 5.152344 -23.988281 4.992188 -24.148438 4.992188 -24.632812 C 5.152344 -26.082031 5.3125 -27.367188 5.472656 -28.65625 C 5.636719 -29.945312 5.796875 -31.234375 5.957031 -32.519531 C 6.761719 -36.867188 7.726562 -40.730469 8.855469 -45.078125 L 9.820312 -49.101562 C 9.980469 -50.070312 9.820312 -50.714844 9.015625 -51.035156 C 8.210938 -51.519531 7.726562 -51.679688 7.726562 -51.679688 L 7.246094 -51.679688 C 5.957031 -51.679688 5.3125 -50.714844 4.828125 -49.585938 C 0.804688 -41.859375 -1.128906 -33.808594 -1.128906 -25.597656 C -1.128906 -24.953125 -1.128906 -24.308594 -1.128906 -23.667969 C -1.128906 -23.023438 -0.964844 -22.378906 -0.804688 -21.894531 C -0.320312 -19.480469 1.769531 -18.191406 4.1875 -18.191406 Z M 11.429688 -60.371094 C 11.914062 -60.371094 12.398438 -60.371094 12.558594 -60.371094 C 12.71875 -60.371094 13.039062 -60.535156 13.523438 -60.695312 C 14.652344 -61.5 15.132812 -63.59375 14.328125 -64.71875 C 13.84375 -65.203125 13.363281 -65.847656 12.878906 -66.652344 C 12.234375 -67.457031 11.429688 -67.777344 10.625 -67.777344 C 9.820312 -67.777344 9.175781 -67.457031 8.855469 -66.8125 C 8.371094 -65.847656 8.210938 -64.71875 8.210938 -63.433594 C 8.210938 -62.304688 8.695312 -61.339844 9.820312 -60.855469 C 10.144531 -60.695312 10.464844 -60.535156 10.785156 -60.535156 C 10.949219 -60.535156 11.269531 -60.535156 11.429688 -60.371094 Z M 11.429688 -60.371094 "/></g></g></g><g fill="#d68bc8" fill-opacity="1"><g transform="translate(128.067321, 154.002106)"><g><path d="M -2.738281 5.472656 C 0.320312 5.3125 0.964844 4.507812 1.449219 2.09375 C 1.609375 1.769531 1.609375 1.289062 1.609375 0.484375 C 1.769531 -0.644531 2.09375 -1.609375 2.253906 -2.738281 C 2.414062 -3.863281 2.738281 -4.992188 2.898438 -6.117188 C 4.828125 -15.9375 7.40625 -25.921875 11.914062 -34.9375 C 12.074219 -35.417969 12.234375 -35.578125 12.234375 -35.578125 C 12.398438 -36.0625 12.558594 -36.222656 12.878906 -36.222656 C 13.363281 -36.222656 13.523438 -36.0625 13.683594 -35.578125 C 14.488281 -34.132812 15.9375 -33.324219 18.03125 -33.164062 C 21.734375 -33.164062 23.503906 -34.453125 25.4375 -37.511719 C 28.175781 -40.894531 29.945312 -44.757812 30.910156 -49.101562 C 31.394531 -51.035156 31.714844 -52.96875 31.234375 -55.058594 C 30.589844 -58.117188 27.851562 -59.890625 24.792969 -59.890625 C 20.769531 -59.890625 17.546875 -55.703125 15.777344 -52.644531 C 14.652344 -50.550781 13.683594 -48.296875 12.558594 -46.207031 C 12.234375 -45.722656 12.074219 -45.078125 11.914062 -44.433594 C 11.753906 -43.789062 11.269531 -43.308594 10.625 -42.984375 C 10.144531 -42.824219 10.304688 -44.113281 10.949219 -46.847656 C 10.949219 -47.011719 10.949219 -47.171875 11.109375 -47.332031 C 11.109375 -47.332031 11.109375 -47.492188 11.109375 -47.65625 C 13.683594 -57.476562 15.777344 -67.296875 17.871094 -77.4375 C 18.351562 -78.886719 18.515625 -80.175781 18.351562 -81.625 C 18.351562 -82.75 16.90625 -83.394531 16.097656 -83.394531 C 15.292969 -83.394531 14.488281 -83.074219 14.007812 -82.269531 L 13.039062 -80.496094 C 12.71875 -79.691406 12.398438 -78.726562 12.074219 -77.921875 C 11.589844 -77.117188 11.269531 -76.152344 10.949219 -75.183594 L 7.566406 -62.949219 C 3.21875 -46.6875 -0.804688 -30.105469 -3.21875 -13.363281 C -4.023438 -8.855469 -4.667969 -4.507812 -5.152344 0.160156 L -5.152344 3.058594 C -5.152344 4.667969 -4.347656 5.472656 -2.738281 5.472656 Z M 14.652344 -39.121094 C 14.488281 -39.121094 14.328125 -39.28125 14.167969 -39.605469 L 14.328125 -40.25 C 15.777344 -43.628906 17.386719 -47.171875 19.480469 -50.714844 C 20.285156 -52.484375 21.414062 -54.09375 22.859375 -55.222656 L 24.308594 -56.347656 C 24.472656 -56.347656 24.472656 -56.347656 24.472656 -56.507812 C 24.472656 -56.507812 24.472656 -56.507812 24.632812 -56.507812 C 25.4375 -56.507812 25.757812 -56.1875 25.757812 -55.542969 C 25.921875 -55.222656 25.921875 -54.738281 25.921875 -54.09375 L 25.113281 -50.390625 C 24.632812 -48.136719 21.25 -39.445312 18.675781 -39.445312 L 18.351562 -39.445312 C 18.191406 -39.605469 17.871094 -39.605469 17.546875 -39.605469 L 17.066406 -39.605469 C 16.582031 -39.605469 16.261719 -39.605469 15.9375 -39.445312 C 15.457031 -39.28125 15.132812 -39.28125 14.652344 -39.121094 Z M 14.652344 -39.121094 "/></g></g></g><g fill="#d66eae" fill-opacity="1"><g transform="translate(162.200473, 154.002106)"><g><path d="M 4.1875 -18.191406 C 6.277344 -18.191406 8.210938 -19.640625 9.660156 -20.929688 C 12.71875 -24.148438 15.457031 -27.53125 17.871094 -31.234375 C 19.320312 -33.648438 20.769531 -36.0625 22.21875 -38.476562 C 23.667969 -40.730469 25.113281 -42.984375 26.5625 -45.402344 L 27.851562 -47.816406 C 28.335938 -48.460938 27.53125 -49.425781 26.726562 -49.585938 C 26.5625 -49.746094 26.242188 -49.746094 25.757812 -49.746094 C 25.113281 -49.746094 24.472656 -49.425781 23.828125 -48.621094 C 23.34375 -47.976562 23.023438 -47.332031 22.699219 -46.847656 C 22.378906 -46.207031 22.054688 -45.5625 21.574219 -45.078125 L 15.617188 -34.9375 L 11.914062 -29.621094 C 10.625 -27.851562 9.015625 -26.402344 7.246094 -24.632812 C 7.082031 -24.472656 6.921875 -24.472656 6.761719 -24.308594 C 6.601562 -24.148438 6.441406 -24.148438 6.277344 -23.988281 C 6.117188 -23.828125 5.957031 -23.828125 5.636719 -23.828125 C 5.152344 -23.988281 4.992188 -24.148438 4.992188 -24.632812 C 5.152344 -26.082031 5.3125 -27.367188 5.472656 -28.65625 C 5.636719 -29.945312 5.796875 -31.234375 5.957031 -32.519531 C 6.761719 -36.867188 7.726562 -40.730469 8.855469 -45.078125 L 9.820312 -49.101562 C 9.980469 -50.070312 9.820312 -50.714844 9.015625 -51.035156 C 8.210938 -51.519531 7.726562 -51.679688 7.726562 -51.679688 L 7.246094 -51.679688 C 5.957031 -51.679688 5.3125 -50.714844 4.828125 -49.585938 C 0.804688 -41.859375 -1.128906 -33.808594 -1.128906 -25.597656 C -1.128906 -24.953125 -1.128906 -24.308594 -1.128906 -23.667969 C -1.128906 -23.023438 -0.964844 -22.378906 -0.804688 -21.894531 C -0.320312 -19.480469 1.769531 -18.191406 4.1875 -18.191406 Z M 11.429688 -60.371094 C 11.914062 -60.371094 12.398438 -60.371094 12.558594 -60.371094 C 12.71875 -60.371094 13.039062 -60.535156 13.523438 -60.695312 C 14.652344 -61.5 15.132812 -63.59375 14.328125 -64.71875 C 13.84375 -65.203125 13.363281 -65.847656 12.878906 -66.652344 C 12.234375 -67.457031 11.429688 -67.777344 10.625 -67.777344 C 9.820312 -67.777344 9.175781 -67.457031 8.855469 -66.8125 C 8.371094 -65.847656 8.210938 -64.71875 8.210938 -63.433594 C 8.210938 -62.304688 8.695312 -61.339844 9.820312 -60.855469 C 10.144531 -60.695312 10.464844 -60.535156 10.785156 -60.535156 C 10.949219 -60.535156 11.269531 -60.535156 11.429688 -60.371094 Z M 11.429688 -60.371094 "/></g></g></g><g fill="#dd6565" fill-opacity="1"><g transform="translate(182.170264, 154.002106)"><g><path d="M 3.863281 16.742188 C 9.5 16.742188 12.074219 11.269531 12.878906 6.601562 C 14.328125 -1.609375 14.488281 -9.820312 11.914062 -18.03125 C 11.429688 -19.160156 11.269531 -19.964844 11.109375 -21.089844 C 10.304688 -23.667969 9.335938 -26.242188 8.050781 -28.816406 C 7.890625 -29.300781 7.726562 -29.621094 7.566406 -30.105469 C 7.40625 -30.429688 7.082031 -30.75 6.921875 -31.234375 C 6.441406 -32.039062 6.761719 -32.683594 7.726562 -33.003906 L 18.03125 -37.832031 C 23.34375 -40.570312 33.808594 -45.402344 37.027344 -48.621094 C 37.511719 -48.78125 37.351562 -49.425781 36.867188 -49.910156 C 36.222656 -50.390625 35.742188 -50.550781 35.257812 -50.550781 C 34.9375 -50.550781 34.613281 -50.390625 34.132812 -50.230469 L 31.394531 -48.78125 C 25.921875 -45.402344 20.285156 -42.339844 14.488281 -39.605469 C 13.683594 -39.121094 13.039062 -38.960938 11.914062 -38.800781 C 11.914062 -38.640625 11.914062 -38.640625 11.914062 -38.800781 C 11.753906 -38.800781 11.753906 -38.800781 11.753906 -38.960938 C 11.589844 -38.960938 11.589844 -39.121094 11.589844 -39.28125 C 12.234375 -40.410156 12.878906 -41.214844 13.683594 -42.019531 C 19.320312 -48.941406 23.503906 -56.671875 26.242188 -65.523438 C 26.402344 -66.007812 26.402344 -66.328125 26.402344 -66.8125 C 26.402344 -67.296875 26.402344 -67.617188 26.5625 -68.101562 C 26.5625 -69.226562 26.242188 -70.195312 25.4375 -71 C 24.148438 -72.449219 22.378906 -73.253906 20.125 -73.253906 C 14.007812 -73.253906 8.371094 -64.398438 5.3125 -56.1875 C 1.933594 -47.816406 -0.484375 -38.476562 -2.414062 -31.070312 C -4.347656 -21.894531 -5.472656 -12.71875 -5.796875 -3.21875 C -5.796875 0.484375 -5.957031 3.863281 -4.828125 7.246094 C -3.703125 11.914062 -1.769531 16.742188 3.863281 16.742188 Z M 4.507812 12.558594 C 4.347656 12.558594 4.1875 12.398438 4.023438 12.234375 C 3.542969 11.753906 3.21875 11.269531 3.058594 10.625 C 2.253906 8.210938 1.609375 5.796875 1.609375 3.21875 C 1.449219 2.414062 1.449219 1.609375 1.609375 0.804688 C 1.609375 0 1.609375 -0.804688 1.609375 -1.609375 C 1.769531 -9.175781 2.574219 -16.90625 4.023438 -24.472656 C 4.023438 -24.953125 4.347656 -25.4375 4.507812 -25.921875 C 4.992188 -25.921875 5.152344 -25.921875 5.152344 -25.921875 C 5.636719 -25.757812 5.796875 -25.4375 5.796875 -25.113281 L 7.082031 -21.414062 C 7.246094 -20.605469 7.566406 -19.964844 7.726562 -19.320312 C 7.890625 -18.515625 8.050781 -17.871094 8.210938 -17.066406 C 10.304688 -9.5 9.820312 -2.253906 8.371094 5.3125 C 8.050781 7.566406 7.246094 9.5 5.957031 11.269531 C 5.796875 11.429688 5.796875 11.589844 5.636719 11.753906 C 5.472656 11.914062 5.152344 12.074219 4.992188 12.234375 C 4.992188 12.398438 4.828125 12.558594 4.507812 12.558594 Z M 8.53125 -42.664062 C 8.371094 -42.664062 8.371094 -42.824219 8.371094 -42.984375 L 8.371094 -43.308594 C 8.371094 -43.789062 8.371094 -44.273438 8.53125 -44.433594 C 10.304688 -49.585938 11.914062 -54.738281 14.007812 -59.730469 C 15.292969 -62.464844 16.90625 -65.203125 18.996094 -67.617188 L 20.929688 -69.390625 C 21.089844 -69.550781 21.414062 -69.550781 21.734375 -69.390625 C 21.734375 -69.390625 21.894531 -69.226562 22.21875 -68.90625 L 22.21875 -68.101562 C 22.21875 -61.820312 13.363281 -47.65625 9.175781 -42.664062 C 9.175781 -42.664062 9.015625 -42.664062 8.53125 -42.664062 Z M 8.53125 -42.664062 "/></g></g></g><g fill="#ffbd4d" fill-opacity="1"><g transform="translate(211.473761, 154.002106)"><g><path d="M 4.507812 13.363281 C 10.144531 12.71875 13.523438 9.335938 15.617188 4.347656 C 20.125 -5.3125 23.023438 -14.972656 24.792969 -25.4375 C 24.953125 -26.726562 25.4375 -27.691406 26.242188 -28.496094 C 28.980469 -31.554688 31.714844 -34.453125 34.453125 -37.511719 C 37.191406 -40.570312 39.925781 -43.46875 42.824219 -46.207031 L 44.273438 -47.816406 C 44.757812 -48.296875 44.273438 -49.265625 43.789062 -49.425781 C 43.308594 -49.746094 42.824219 -49.910156 42.019531 -49.910156 C 41.214844 -49.910156 40.410156 -49.585938 39.925781 -48.941406 C 36.707031 -45.238281 33.488281 -41.859375 30.105469 -38.476562 C 29.300781 -37.671875 28.496094 -36.867188 27.691406 -36.222656 C 27.53125 -36.0625 27.207031 -36.0625 26.886719 -36.222656 C 26.886719 -36.222656 26.886719 -36.386719 26.726562 -36.546875 L 26.726562 -38.316406 C 27.367188 -43.628906 28.175781 -48.941406 28.980469 -54.09375 L 28.980469 -56.832031 L 28.496094 -57.796875 C 27.851562 -58.601562 27.046875 -59.085938 25.921875 -59.085938 C 25.113281 -59.085938 24.472656 -58.761719 23.988281 -58.117188 L 19.640625 -52.324219 C 17.710938 -49.585938 15.777344 -47.011719 13.84375 -44.757812 C 13.363281 -44.273438 12.878906 -43.628906 12.398438 -43.148438 C 11.914062 -42.664062 11.269531 -42.019531 10.785156 -41.535156 C 10.304688 -41.375 9.980469 -41.214844 9.660156 -41.214844 C 9.5 -41.214844 9.175781 -42.019531 9.335938 -42.503906 C 9.335938 -42.984375 9.5 -43.628906 9.660156 -44.433594 L 11.109375 -49.425781 C 11.269531 -50.070312 11.429688 -50.714844 11.589844 -51.355469 C 11.753906 -52 11.753906 -52.644531 11.914062 -53.128906 C 11.914062 -53.609375 11.753906 -54.09375 11.589844 -54.578125 C 10.464844 -55.703125 9.660156 -55.863281 8.210938 -55.863281 C 7.726562 -55.703125 7.40625 -55.382812 7.246094 -55.222656 C 5.636719 -54.417969 2.414062 -43.628906 2.414062 -41.535156 C 1.769531 -37.511719 3.703125 -36.0625 6.117188 -34.9375 C 6.601562 -34.773438 7.246094 -34.453125 7.890625 -34.292969 C 8.695312 -34.292969 9.335938 -34.453125 10.144531 -34.613281 C 11.269531 -35.097656 12.234375 -35.902344 12.878906 -36.707031 L 17.546875 -42.179688 C 18.03125 -42.824219 18.675781 -43.46875 19.160156 -44.273438 C 19.640625 -44.917969 20.125 -45.5625 20.605469 -46.367188 C 21.089844 -46.847656 21.414062 -46.847656 21.574219 -46.6875 C 21.734375 -46.527344 21.734375 -46.527344 21.734375 -46.367188 C 21.734375 -46.207031 21.734375 -45.882812 21.894531 -45.722656 C 21.894531 -45.5625 21.894531 -45.402344 21.734375 -45.402344 C 20.605469 -39.121094 19.640625 -33.003906 18.351562 -26.726562 C 18.191406 -25.921875 17.871094 -25.277344 17.386719 -24.792969 C 16.90625 -23.988281 16.261719 -23.34375 15.617188 -22.699219 C 13.523438 -20.285156 11.589844 -18.03125 9.5 -15.617188 C 7.40625 -13.203125 5.472656 -10.785156 3.382812 -8.371094 C 0.964844 -5.796875 -1.933594 -1.128906 -3.058594 2.253906 C -3.863281 5.3125 -3.382812 7.726562 -2.09375 10.304688 C -0.320312 12.71875 1.449219 13.363281 4.507812 13.363281 Z M 3.058594 10.625 C 1.769531 10.144531 1.449219 8.695312 0.964844 7.566406 C 0.804688 7.082031 0.804688 6.761719 0.804688 6.441406 C 0.804688 6.117188 0.804688 5.957031 0.804688 5.796875 C 0.804688 0.484375 11.109375 -13.683594 15.617188 -15.9375 C 16.097656 -15.9375 16.097656 -15.457031 15.9375 -14.652344 C 15.9375 -14.488281 15.9375 -14.488281 15.777344 -14.328125 C 13.683594 -7.40625 10.144531 4.828125 6.117188 8.855469 C 4.992188 9.980469 4.507812 10.625 3.058594 10.625 Z M 3.058594 10.625 "/></g></g></g></svg>